<svg width="86" height="86" viewBox="0 0 86 86" fill="none" xmlns="http://www.w3.org/2000/svg">
<circle cx="43" cy="43" r="42" stroke="url(#paint0_linear_434_332)" stroke-width="2"/>
<path d="M42.6075 50.2677C36.6586 50.2677 31.8184 45.4278 31.8184 39.4785V34.1532C31.8184 28.2036 36.6586 23.3633 42.6075 23.3633C48.5572 23.3633 53.3975 28.2036 53.3975 34.1532V39.4785C53.3975 45.4278 48.5572 50.2677 42.6075 50.2677ZM42.6075 24.8945C37.5027 24.8945 33.3496 29.048 33.3496 34.1532V39.4785C33.3496 44.583 37.5027 48.7365 42.6075 48.7365C47.7127 48.7365 51.8663 44.583 51.8663 39.4785V34.1532C51.8663 29.048 47.7127 24.8945 42.6075 24.8945Z" fill="#3897F1"/>
<path d="M57.1738 61.6444H27.8848C25.3896 61.6444 23.3604 59.6144 23.3604 57.1196V53.7761C23.3604 52.2996 24.108 50.3205 27.6708 49.2827L32.0513 48.0699C32.4598 47.9585 32.8809 48.1962 32.9934 48.6039C33.106 49.0116 32.8671 49.4331 32.4594 49.546L28.0889 50.7557C24.8912 51.6875 24.8912 53.2597 24.8912 53.7765V57.12C24.8912 58.7711 26.2341 60.1136 27.8844 60.1136H57.1734C58.8241 60.1136 60.1666 58.7707 60.1666 57.12V53.7765C60.1666 52.3819 59.0886 51.3652 56.9617 50.7538L52.7921 49.5881C52.3848 49.4745 52.1467 49.0522 52.2608 48.6445C52.3749 48.2376 52.796 47.9979 53.204 48.1136L57.379 49.2807C60.9491 50.3075 61.6975 52.2923 61.6975 53.7765V57.12C61.6983 59.6144 59.669 61.6444 57.1738 61.6444Z" fill="#3897F1"/>
<defs>
<linearGradient id="paint0_linear_434_332" x1="43" y1="0" x2="43" y2="86" gradientUnits="userSpaceOnUse">
<stop stop-color="#1E71E3"/>
<stop offset="1" stop-color="#0098DB"/>
</linearGradient>
</defs>
</svg>
