<svg width="30" height="30" viewBox="0 0 30 30" fill="none" xmlns="http://www.w3.org/2000/svg">
<path d="M24.7345 18.9213V18.9213ZM24.7345 18.9213L25.1124 18.4875L24.7345 18.9213ZM11.2499 11.2587C11.2624 12.8497 11.6868 14.4103 12.4816 15.7886C13.2766 17.1671 14.4151 18.3162 15.7862 19.1239C17.1573 19.9316 18.7143 20.3704 20.3054 20.3975C21.5239 20.4182 22.7305 20.197 23.8566 19.7506C23.2057 20.9085 22.3218 21.9239 21.2566 22.7304C19.8977 23.7593 18.2917 24.412 16.6003 24.6227C14.9089 24.8334 13.1919 24.5947 11.6221 23.9307C10.0523 23.2666 8.68523 22.2007 7.6585 20.8401C6.63178 19.4796 5.98168 17.8726 5.77368 16.1809C5.56567 14.4891 5.80711 12.7725 6.47367 11.2038C7.14022 9.63504 8.20837 8.26965 9.57054 7.24511C10.652 6.43171 11.8884 5.85594 13.1988 5.55044C12.6783 6.21051 12.2508 6.94115 11.93 7.72206C11.4693 8.84368 11.2381 10.0463 11.2499 11.2587Z" fill="white" stroke="white" stroke-width="2"/>
</svg>
