<svg width="86" height="86" viewBox="0 0 86 86" fill="none" xmlns="http://www.w3.org/2000/svg">
<circle cx="43" cy="43" r="42" stroke="url(#paint0_linear_434_333)" stroke-width="2"/>
<path fill-rule="evenodd" clip-rule="evenodd" d="M67.3188 53.1531C67.3188 53.1661 67.3259 53.1756 67.3259 53.1875C67.3259 53.1934 67.3223 53.1994 67.3223 53.2065C67.3235 53.2124 67.3259 53.2184 67.3259 53.2255C67.3259 53.881 66.7951 54.413 66.1384 54.413C66.1562 54.4118 55.5625 54.375 55.5625 54.375C54.9058 54.375 54.375 53.843 54.375 53.1875C54.375 52.5308 54.9058 52 55.5625 52H64.9984C65.0209 51.6034 65.0625 51.2139 65.0625 50.8125C65.0625 38.3521 54.9604 28.25 42.5 28.25C30.0396 28.25 19.9375 38.3521 19.9375 50.8125C19.9375 51.2139 19.9791 51.6034 20.0004 52H29.4375C30.0942 52 30.625 52.5308 30.625 53.1875C30.625 53.843 30.0942 54.375 29.4375 54.375C29.4375 54.375 18.845 54.4118 18.8616 54.4118C18.2049 54.4118 17.6741 53.8798 17.6741 53.2243C17.6741 53.2172 17.6765 53.2112 17.6777 53.2053C17.6777 53.1982 17.6741 53.1923 17.6741 53.1863C17.6741 53.1733 17.6812 53.1638 17.6812 53.1531C17.6088 52.3812 17.5625 51.6022 17.5625 50.8125C17.5625 37.0387 28.7274 25.875 42.5 25.875C56.2726 25.875 67.4375 37.0387 67.4375 50.8125C67.4375 51.6022 67.3912 52.3812 67.3188 53.1531ZM34.8086 39.0895C35.2753 38.833 35.8358 38.9185 36.2205 39.2474L36.1611 39.1489C46.5803 46.7726 48.7213 50.2793 48.7605 50.3446C50.4622 53.1436 49.4504 56.7227 46.5054 58.3377C43.5604 59.9527 39.7925 58.9944 38.092 56.1954C38.0504 56.1325 35.926 52.6163 34.1839 40.2331L34.2445 40.3304C34.1388 39.8507 34.3431 39.3448 34.8086 39.0895ZM40.2271 55.0269C40.8862 56.1087 42.1141 56.7821 43.4322 56.7821C44.0758 56.7821 44.7135 56.6194 45.2752 56.3106C46.1302 55.8416 46.7418 55.0863 46.9971 54.1802C47.2536 53.273 47.1217 52.3277 46.6372 51.5298C46.6171 51.5001 44.7705 48.6964 37.0636 42.804C38.5848 52.0843 40.2141 55.0032 40.2271 55.0269Z" fill="#3897F1"/>
<defs>
<linearGradient id="paint0_linear_434_333" x1="43" y1="0" x2="43" y2="86" gradientUnits="userSpaceOnUse">
<stop stop-color="#1E71E3"/>
<stop offset="1" stop-color="#0098DB"/>
</linearGradient>
</defs>
</svg>
