<svg width="34" height="34" viewBox="0 0 34 34" fill="none" xmlns="http://www.w3.org/2000/svg">
<path d="M16.9998 24.0832C20.9119 24.0832 24.0832 20.9119 24.0832 16.9998C24.0832 13.0878 20.9119 9.9165 16.9998 9.9165C13.0878 9.9165 9.9165 13.0878 9.9165 16.9998C9.9165 20.9119 13.0878 24.0832 16.9998 24.0832Z" fill="#464646"/>
<path d="M29.7498 18.4168H28.3332C27.9574 18.4168 27.5971 18.2676 27.3314 18.0019C27.0658 17.7362 26.9165 17.3759 26.9165 17.0002C26.9165 16.6244 27.0658 16.2641 27.3314 15.9984C27.5971 15.7328 27.9574 15.5835 28.3332 15.5835H29.7498C30.1256 15.5835 30.4859 15.7328 30.7516 15.9984C31.0172 16.2641 31.1665 16.6244 31.1665 17.0002C31.1665 17.3759 31.0172 17.7362 30.7516 18.0019C30.4859 18.2676 30.1256 18.4168 29.7498 18.4168Z" fill="#464646"/>
<path d="M5.66683 18.4168H4.25016C3.87444 18.4168 3.5141 18.2676 3.24843 18.0019C2.98275 17.7362 2.8335 17.3759 2.8335 17.0002C2.8335 16.6244 2.98275 16.2641 3.24843 15.9984C3.5141 15.7328 3.87444 15.5835 4.25016 15.5835H5.66683C6.04255 15.5835 6.40289 15.7328 6.66856 15.9984C6.93424 16.2641 7.0835 16.6244 7.0835 17.0002C7.0835 17.3759 6.93424 17.7362 6.66856 18.0019C6.40289 18.2676 6.04255 18.4168 5.66683 18.4168Z" fill="#464646"/>
<path d="M25.0183 10.3981C24.6664 10.3822 24.3331 10.2357 24.0833 9.98729C23.8195 9.72186 23.6714 9.3628 23.6714 8.98854C23.6714 8.61428 23.8195 8.25522 24.0833 7.98979L25.0892 6.98396C25.2162 6.83566 25.3725 6.71521 25.5482 6.63018C25.724 6.54515 25.9154 6.49736 26.1105 6.48983C26.3056 6.48229 26.5002 6.51516 26.682 6.58639C26.8638 6.65761 27.0289 6.76564 27.1669 6.9037C27.305 7.04176 27.413 7.20687 27.4842 7.38867C27.5555 7.57046 27.5883 7.76501 27.5808 7.96012C27.5733 8.15522 27.5255 8.34666 27.4405 8.52241C27.3554 8.69817 27.235 8.85446 27.0867 8.98146L26.0808 9.98729C25.9418 10.1256 25.7756 10.2335 25.5927 10.3042C25.4098 10.3749 25.2142 10.4069 25.0183 10.3981Z" fill="#464646"/>
<path d="M7.99005 27.4267C7.80361 27.4277 7.61879 27.392 7.44619 27.3215C7.27358 27.251 7.1166 27.1471 6.98422 27.0158C6.72037 26.7504 6.57227 26.3913 6.57227 26.0171C6.57227 25.6428 6.72037 25.2838 6.98422 25.0183L7.99005 24.0833C8.26107 23.8512 8.60967 23.73 8.96621 23.7437C9.32276 23.7575 9.66097 23.9053 9.91327 24.1576C10.1656 24.4099 10.3134 24.7481 10.3271 25.1047C10.3409 25.4612 10.2196 25.8098 9.98756 26.0808L8.98172 27.0867C8.7068 27.3226 8.35193 27.4443 7.99005 27.4267Z" fill="#464646"/>
<path d="M17.0002 7.0835C16.6244 7.0835 16.2641 6.93424 15.9984 6.66856C15.7328 6.40289 15.5835 6.04255 15.5835 5.66683V4.25016C15.5835 3.87444 15.7328 3.5141 15.9984 3.24843C16.2641 2.98275 16.6244 2.8335 17.0002 2.8335C17.3759 2.8335 17.7362 2.98275 18.0019 3.24843C18.2676 3.5141 18.4168 3.87444 18.4168 4.25016V5.66683C18.4168 6.04255 18.2676 6.40289 18.0019 6.66856C17.7362 6.93424 17.3759 7.0835 17.0002 7.0835Z" fill="#464646"/>
<path d="M17.0002 31.1665C16.6244 31.1665 16.2641 31.0172 15.9984 30.7516C15.7328 30.4859 15.5835 30.1256 15.5835 29.7498V28.3332C15.5835 27.9574 15.7328 27.5971 15.9984 27.3314C16.2641 27.0658 16.6244 26.9165 17.0002 26.9165C17.3759 26.9165 17.7362 27.0658 18.0019 27.3314C18.2676 27.5971 18.4168 27.9574 18.4168 28.3332V29.7498C18.4168 30.1256 18.2676 30.4859 18.0019 30.7516C17.7362 31.0172 17.3759 31.1665 17.0002 31.1665Z" fill="#464646"/>
<path d="M8.9817 10.3984C8.61005 10.3968 8.2539 10.2493 7.99004 9.98754L6.9842 8.9817C6.75211 8.71069 6.63084 8.36208 6.64461 8.00554C6.65838 7.649 6.80619 7.31079 7.05849 7.05849C7.31079 6.80619 7.649 6.65838 8.00554 6.64461C8.36208 6.63084 8.71069 6.75211 8.9817 6.9842L9.98754 7.99004C10.2514 8.25547 10.3995 8.61452 10.3995 8.98879C10.3995 9.36305 10.2514 9.72211 9.98754 9.98754C9.85516 10.1188 9.69817 10.2227 9.52557 10.2932C9.35297 10.3637 9.16815 10.3994 8.9817 10.3984Z" fill="#464646"/>
<path d="M26.0101 27.4268C25.6384 27.4252 25.2823 27.2776 25.0184 27.0159L24.0834 26.0101C23.9337 25.7409 23.8758 25.4303 23.9184 25.1253C23.9611 24.8203 24.1019 24.5375 24.3197 24.3197C24.5375 24.1019 24.8203 23.9611 25.1253 23.9184C25.4303 23.8758 25.7409 23.9337 26.0101 24.0834L27.0159 25.0893C27.2798 25.3547 27.4279 25.7137 27.4279 26.088C27.4279 26.4623 27.2798 26.8213 27.0159 27.0868C26.7374 27.3262 26.3768 27.4481 26.0101 27.4268Z" fill="#464646"/>
</svg>
