<?xml version="1.0" encoding="UTF-8" standalone="no"?>
<!DOCTYPE svg PUBLIC "-//W3C//DTD SVG 1.1//EN" "http://www.w3.org/Graphics/SVG/1.1/DTD/svg11.dtd">
<!-- Created with Vectornator (http://vectornator.io/) -->
<svg height="100%" stroke-miterlimit="10" style="fill-rule:nonzero;clip-rule:evenodd;stroke-linecap:round;stroke-linejoin:round;" version="1.1" viewBox="0 0 700 700" width="100%" xml:space="preserve" xmlns="http://www.w3.org/2000/svg" xmlns:vectornator="http://vectornator.io" xmlns:xlink="http://www.w3.org/1999/xlink">
<defs/>
<g id="Layer-1" vectornator:layerName="Layer 1">
<path d="M475.943 324.416C476.833 340.785 461.696 339.304 453.949 334.493C452.585 333.645 451.951 332.974 450.757 332.331C448.865 333.988 443.494 339.102 442.303 341.092C443.39 343.009 448.208 346.222 451.195 347.466C455.116 349.099 459.666 349.986 464.391 350C474.566 350.028 481.806 346.782 486.951 341.493C493.464 334.796 492.641 326.824 492.641 315.948C492.641 305.468 492.453 294.812 492.668 284.352C489.55 284.334 480.687 283.973 478.223 284.605L478.153 290.469C476.63 289.642 477.365 289.756 476.161 288.405C475.399 287.549 474.793 287.167 473.801 286.513C472.199 285.456 470.341 284.708 468.058 284.176C463.516 283.117 458.25 283.775 454.416 285.524C447.519 288.67 442.511 295.955 441.876 305.794C441.193 316.395 445.875 324.506 452.114 328.236C455.941 330.524 460.308 331.489 465.399 330.56C473.191 329.138 474.115 325.378 475.943 324.416ZM465.605 297.844C455.63 300.03 456.483 319.717 469.491 317.648C476.866 316.474 476.271 310.246 476.004 305.696C475.75 301.374 470.698 296.728 465.605 297.844" fill="#3897f1" fill-rule="evenodd" opacity="1" stroke="none" vectornator:layerName="path 9"/>
<path d="M391.188 289.527C391.704 292.171 394.559 297.691 395.783 299.438C398.918 298.593 401.255 295.438 408.339 294.881C414.155 294.424 418.892 295.741 417.993 302.268C410.881 300.361 403.642 299.65 397.139 303.249C378.223 313.716 394.074 338.648 413.704 328.765C415.186 328.019 416.451 327.167 417.537 326.193C418.978 324.899 419.221 324.067 420.822 323.204C422.035 327.399 422.576 329.172 426.637 330.279C430.337 331.289 434.296 330.752 437.916 329.897L438.078 316.801C437.728 315.245 436.21 316.087 435.3 314.37C433.014 310.055 439.42 293.149 425.387 286.342C420.259 283.855 413.364 283.214 407.144 283.884C402.172 284.42 393.984 286.839 391.188 289.527ZM417.898 310.835C415.482 309.713 410.85 309.248 408.326 310.143C401.14 312.692 404.459 321.636 413.906 318.311C417.372 317.091 418.961 315.53 417.898 310.835" fill="#3897f1" fill-rule="evenodd" opacity="1" stroke="none" vectornator:layerName="path 10"/>
<path d="M346.98 318.237L333.059 314.374C332.001 317.456 327.913 319.49 323.765 319.031C319.377 318.546 317.205 316.544 316.581 312.167C322.816 311.209 336.767 311.969 343.792 311.988C348.408 312 350.352 313.915 349.38 304.009C347.049 280.261 310.982 276.054 301.078 297.113C296.193 307.503 299.848 320.75 308.554 326.468C323.631 336.369 344.406 328.09 346.98 318.237ZM316.372 301.956L331.563 302.008C330.836 292.991 317.059 293.368 316.372 301.956" fill="#3897f1" fill-rule="evenodd" opacity="1" stroke="none" vectornator:layerName="path 11"/>
<path d="M224.913 290.488L224.861 284.503L209.888 284.339L209.945 329.964L226.395 329.933C227.286 322.334 225.39 305.832 227.406 302.701C228.401 301.155 230.518 298.981 233.041 298.43C240.626 296.775 239.893 305.095 239.893 310.835C239.892 317.192 239.887 323.549 239.886 329.906L256.33 329.946C257.007 324.314 256.462 315.079 256.462 309.13C256.462 295.56 257.854 282.615 239.499 283.78C236.627 283.962 233.619 284.733 231.141 285.971C227.207 287.936 226.674 289.834 224.913 290.488" fill="#3897f1" fill-rule="evenodd" opacity="1" stroke="none" vectornator:layerName="path 12"/>
<path d="M267.734 284.108L262.042 284.42L262.069 296.722L267.662 296.906C268.769 306.012 265.466 321.46 270.878 327.074C276.816 333.236 289.886 330.851 296.842 327.426C296.785 325.193 294.658 315.845 293.849 314.442C290.402 315.6 284.875 317.586 284.556 312.132C284.376 309.065 284.276 299.706 284.73 296.964L293.534 296.789L293.528 284.384L284.754 284.309C283.91 279.969 285.67 273.303 284.241 269.802L268.015 269.618L267.734 284.108Z" fill="#3897f1" fill-rule="evenodd" opacity="1" stroke="none" vectornator:layerName="path 13"/>
<path d="M370.639 291.555L370.402 284.349L355.177 284.348L355.234 329.975L371.691 329.93C372.398 323.652 371.848 313.121 371.8 306.571C371.764 301.715 372.115 300.839 376.101 299.256C379.662 297.841 382.594 298.156 386.339 297.532L386.512 282.725C380.353 282.213 376.983 284.411 373.442 288.07L370.846 291.366C370.809 291.404 370.715 291.5 370.639 291.555" fill="#3897f1" fill-rule="evenodd" opacity="1" stroke="none" vectornator:layerName="path 14"/>
<path d="M519.931 283.25C488.166 286.495 491.935 334.635 527.681 330.052C558.859 326.056 555.541 279.613 519.931 283.25ZM521.886 297.244C511.666 299.127 513.753 318.892 525.643 316.104C535.089 313.89 533.992 295.013 521.886 297.244" fill="#3897f1" fill-rule="evenodd" opacity="1" stroke="none" vectornator:layerName="path 15"/>
<path d="M184.784 283.39L199.146 283.39C199.148 283.39 199.149 283.396 199.149 283.396L199.149 329.23C199.149 329.234 199.148 329.236 199.146 329.236L184.784 329.236C184.782 329.236 184.781 329.234 184.781 329.23L184.781 283.396C184.781 283.392 184.782 283.39 184.784 283.39" fill="#3897f1" fill-rule="evenodd" opacity="1" stroke="none" vectornator:layerName="path 16"/>
<path d="M366.902 139.228C364.332 139.219 360.846 139.159 356.755 139.08C335.362 138.667 297.425 137.738 287.345 141.014C287.012 151.257 284.064 204.439 291.723 206.098L366.269 206.705L366.902 139.228Z" fill="none" opacity="1" stroke="#1e71e3" stroke-linecap="butt" stroke-linejoin="miter" stroke-width="13.4944" vectornator:layerName="path 17"/>
<path d="M413.488 173.262C410.918 173.254 407.432 173.194 403.342 173.115C381.949 172.701 344.011 171.773 333.932 175.049C333.598 185.292 330.651 238.474 338.309 240.133L412.855 240.74L413.488 173.262Z" fill="none" opacity="1" stroke="#3897f1" stroke-linecap="butt" stroke-linejoin="miter" stroke-width="12.4944" vectornator:layerName="path 18"/>
<path d="M199.605 264.552C199.131 264.551 198.488 264.54 197.734 264.525C193.789 264.449 186.793 264.278 184.935 264.882C184.873 266.771 184.33 276.578 185.742 276.884L199.488 276.996L199.605 264.552Z" fill="#3897f1" fill-rule="nonzero" opacity="1" stroke="#3897f1" stroke-linecap="butt" stroke-linejoin="miter" stroke-width="2.49436" vectornator:layerName="path 19"/>
<path d="M522.464 552.756C523.354 569.125 508.217 567.644 500.47 562.833C499.106 561.985 498.472 561.314 497.278 560.671C495.386 562.328 490.015 567.442 488.824 569.432C489.911 571.349 494.729 574.562 497.716 575.806C501.637 577.439 506.187 578.326 510.912 578.34C521.087 578.368 528.327 575.122 533.472 569.833C539.985 563.136 539.162 555.164 539.162 544.289C539.162 533.808 538.974 523.152 539.189 512.692C536.071 512.674 527.208 512.314 524.744 512.945L524.674 518.809C523.151 517.982 523.886 518.096 522.682 516.745C521.92 515.89 521.314 515.507 520.322 514.853C518.72 513.796 516.862 513.048 514.579 512.516C510.037 511.457 504.771 512.115 500.937 513.864C494.04 517.01 489.032 524.295 488.397 534.134C487.714 544.736 492.396 552.846 498.635 556.576C502.462 558.864 506.829 559.829 511.92 558.9C519.712 557.478 520.636 553.718 522.464 552.756ZM512.126 526.184C502.151 528.37 503.004 548.057 516.012 545.988C523.387 544.814 522.792 538.586 522.525 534.036C522.271 529.714 517.219 525.068 512.126 526.184" fill="#3897f1" fill-rule="evenodd" opacity="1" stroke="none" vectornator:layerName="path 20"/>
<path d="M437.709 517.867C438.225 520.511 441.08 526.031 442.304 527.778C445.439 526.933 447.776 523.778 454.86 523.221C460.676 522.764 465.413 524.081 464.514 530.608C457.402 528.701 450.163 527.99 443.66 531.589C424.744 542.056 440.595 566.988 460.225 557.105C461.707 556.359 462.972 555.507 464.058 554.533C465.499 553.239 465.742 552.407 467.343 551.544C468.556 555.74 469.097 557.512 473.158 558.619C476.858 559.629 480.817 559.092 484.437 558.237L484.599 545.141C484.249 543.585 482.731 544.427 481.821 542.71C479.535 538.395 485.941 521.489 471.908 514.682C466.78 512.195 459.885 511.554 453.665 512.224C448.693 512.76 440.505 515.179 437.709 517.867ZM464.419 539.175C462.003 538.053 457.371 537.588 454.847 538.483C447.661 541.032 450.98 549.976 460.427 546.651C463.893 545.431 465.482 543.87 464.419 539.175" fill="#3897f1" fill-rule="evenodd" opacity="1" stroke="none" vectornator:layerName="path 21"/>
<path d="M393.501 546.577L379.58 542.714C378.522 545.796 374.434 547.83 370.286 547.371C365.898 546.886 363.726 544.884 363.102 540.507C369.337 539.549 383.288 540.309 390.313 540.328C394.929 540.34 396.873 542.255 395.901 532.35C393.57 508.601 357.503 504.394 347.599 525.453C342.714 535.843 346.369 549.09 355.075 554.808C370.152 564.709 390.927 556.43 393.501 546.577ZM362.893 530.296L378.084 530.349C377.357 521.331 363.58 521.708 362.893 530.296" fill="#3897f1" fill-rule="evenodd" opacity="1" stroke="none" vectornator:layerName="path 22"/>
<path d="M271.434 518.828L271.382 512.843L256.409 512.679L256.466 558.304L272.916 558.273C273.807 550.674 271.911 534.172 273.927 531.041C274.922 529.495 277.039 527.321 279.561 526.77C287.147 525.115 286.414 533.435 286.414 539.175C286.413 545.532 286.408 551.889 286.407 558.246L302.851 558.287C303.528 552.654 302.983 543.419 302.983 537.47C302.983 523.9 304.375 510.955 286.02 512.12C283.148 512.302 280.14 513.073 277.662 514.311C273.728 516.276 273.195 518.174 271.434 518.828" fill="#3897f1" fill-rule="evenodd" opacity="1" stroke="none" vectornator:layerName="path 23"/>
<path d="M314.255 512.448L308.563 512.761L308.59 525.062L314.183 525.246C315.29 534.352 311.987 549.8 317.399 555.414C323.337 561.576 336.407 559.191 343.363 555.766C343.306 553.533 341.179 544.185 340.37 542.782C336.923 543.94 331.396 545.926 331.077 540.472C330.897 537.405 330.797 528.046 331.251 525.304L340.055 525.129L340.049 512.724L331.275 512.649C330.431 508.309 332.191 501.643 330.762 498.142L314.536 497.958L314.255 512.448Z" fill="#3897f1" fill-rule="evenodd" opacity="1" stroke="none" vectornator:layerName="path 24"/>
<path d="M417.16 519.895L416.923 512.689L401.698 512.688L401.755 558.315L418.212 558.27C418.919 551.992 418.369 541.461 418.321 534.911C418.285 530.055 418.636 529.179 422.622 527.596C426.183 526.181 429.115 526.496 432.86 525.872L433.033 511.065C426.874 510.553 423.504 512.752 419.963 516.41L417.367 519.706C417.33 519.744 417.236 519.84 417.16 519.895" fill="#3897f1" fill-rule="evenodd" opacity="1" stroke="none" vectornator:layerName="path 25"/>
<path d="M566.452 511.59C534.687 514.835 538.456 562.975 574.202 558.392C605.38 554.396 602.062 507.953 566.452 511.59ZM568.407 525.584C558.187 527.467 560.274 547.232 572.164 544.444C581.61 542.23 580.513 523.353 568.407 525.584" fill="#3897f1" fill-rule="evenodd" opacity="1" stroke="none" vectornator:layerName="path 26"/>
<path d="M231.305 511.73L245.667 511.73C245.669 511.73 245.67 511.736 245.67 511.736L245.67 557.57C245.67 557.574 245.669 557.576 245.667 557.576L231.305 557.576C231.303 557.576 231.302 557.574 231.302 557.57L231.302 511.736C231.302 511.732 231.303 511.73 231.305 511.73" fill="#3897f1" fill-rule="evenodd" opacity="1" stroke="none" vectornator:layerName="path 27"/>
<path d="M151.042 478.131C148.472 478.123 144.986 478.062 140.896 477.983C119.502 477.57 81.5647 476.641 71.4855 479.917C71.1517 490.161 68.2045 543.342 75.8629 545.001L150.409 545.609L151.042 478.131Z" fill="none" opacity="1" stroke="#1e71e3" stroke-linecap="butt" stroke-linejoin="miter" stroke-width="13.4944" vectornator:layerName="path 28"/>
<path d="M197.629 512.166C195.058 512.157 191.572 512.097 187.482 512.018C166.089 511.605 128.151 510.676 118.072 513.952C117.738 524.196 114.791 577.377 122.449 579.036L196.995 579.643L197.629 512.166Z" fill="none" opacity="1" stroke="#3897f1" stroke-linecap="butt" stroke-linejoin="miter" stroke-width="12.4944" vectornator:layerName="path 29"/>
<path d="M246.126 492.893C245.652 492.891 245.009 492.88 244.255 492.865C240.31 492.789 233.314 492.618 231.456 493.222C231.394 495.111 230.851 504.918 232.263 505.224L246.009 505.336L246.126 492.893Z" fill="#3897f1" fill-rule="nonzero" opacity="1" stroke="#3897f1" stroke-linecap="butt" stroke-linejoin="miter" stroke-width="2.49436" vectornator:layerName="path 30"/>
</g>
</svg>
